<svg xmlns="http://www.w3.org/2000/svg" xmlns:xlink="http://www.w3.org/1999/xlink" width="423px" height="83px" version="1.1"><defs/><g transform="translate(0.5,0.5)"><ellipse cx="141" cy="41" rx="40" ry="40" fill="#ffffff" stroke="#000000" pointer-events="none"/><ellipse cx="291" cy="41" rx="40" ry="40" fill="#ffffff" stroke="#000000" pointer-events="none"/><rect x="251" y="11" width="80" height="20" fill="none" stroke="none" pointer-events="none"/><g fill="#000000" font-family="Helvetica" text-anchor="middle" font-size="12px"><text x="291" y="25">Sakkadi</text></g><rect x="181" y="1" width="80" height="40" fill="none" stroke="none" pointer-events="none"/><g fill="#000000" font-family="Helvetica" text-anchor="middle" font-size="12px"><text x="221" y="25">0.1</text></g><path d="M 181 31 L 245 31" fill="none" stroke="#000000" stroke-miterlimit="10" pointer-events="none"/><path d="M 250 31 L 243 35 L 245 31 L 243 28 Z" fill="#000000" stroke="#000000" stroke-miterlimit="10" pointer-events="none"/><path d="M 251 51 L 187 51" fill="none" stroke="#000000" stroke-miterlimit="10" pointer-events="none"/><path d="M 182 51 L 189 48 L 187 51 L 189 55 Z" fill="#000000" stroke="#000000" stroke-miterlimit="10" pointer-events="none"/><path d="M 113 69 Q 51 61 56 41 Q 61 21 95 29" fill="none" stroke="#000000" stroke-miterlimit="10" pointer-events="none"/><path d="M 100 31 L 92 32 L 95 29 L 94 26 Z" fill="#000000" stroke="#000000" stroke-miterlimit="10" pointer-events="none"/><rect x="181" y="41" width="80" height="40" fill="none" stroke="none" pointer-events="none"/><g fill="#000000" font-family="Helvetica" text-anchor="middle" font-size="12px"><text x="221" y="65">0.1</text></g><path d="M 319 69 Q 361 61 361 37 Q 361 12 326 13" fill="none" stroke="#000000" stroke-miterlimit="10" pointer-events="none"/><path d="M 320 13 L 327 9 L 326 13 L 327 16 Z" fill="#000000" stroke="#000000" stroke-miterlimit="10" pointer-events="none"/><rect x="1" y="21" width="80" height="40" fill="none" stroke="none" pointer-events="none"/><g fill="#000000" font-family="Helvetica" text-anchor="middle" font-size="12px"><text x="41" y="45">0.9</text></g><rect x="341" y="11" width="80" height="40" fill="none" stroke="none" pointer-events="none"/><g fill="#000000" font-family="Helvetica" text-anchor="middle" font-size="12px"><text x="381" y="35">0.9</text></g><rect x="221" y="31" width="80" height="40" fill="none" stroke="none" pointer-events="none"/><g fill="#000000" font-family="Helvetica" text-anchor="middle" font-size="12px"><text x="261" y="55">v</text></g><path d="M 271 66 L 271 36" fill="none" stroke="#000000" stroke-miterlimit="10" pointer-events="none"/><path d="M 311 66 L 271 66" fill="none" stroke="#000000" stroke-miterlimit="10" pointer-events="none"/><path d="M 281 46 Q 301 46 301 56 Q 301 66 281 66 Z" fill="#ffffff" stroke="#000000" stroke-miterlimit="10" transform="rotate(-90,291,56)" pointer-events="none"/><path d="M 121 66 L 121 36" fill="none" stroke="#000000" stroke-miterlimit="10" pointer-events="none"/><path d="M 161 66 L 121 66" fill="none" stroke="#000000" stroke-miterlimit="10" pointer-events="none"/><path d="M 131 46 Q 151 46 151 56 Q 151 66 131 66 Z" fill="#ffffff" stroke="#000000" stroke-miterlimit="10" transform="rotate(-90,141,56)" pointer-events="none"/><rect x="101" y="11" width="80" height="20" fill="none" stroke="none" pointer-events="none"/><g fill="#000000" font-family="Helvetica" text-anchor="middle" font-size="12px"><text x="141" y="25">Fiksaatio</text></g><rect x="71" y="31" width="80" height="40" fill="none" stroke="none" pointer-events="none"/><g fill="#000000" font-family="Helvetica" text-anchor="middle" font-size="12px"><text x="111" y="55">v</text></g></g></svg>